<svg xmlns="http://www.w3.org/2000/svg" width="1200" height="600" viewBox="0 0 1200 600" role="img" aria-label="Portability contract drives consistent pipeline semantics across language ports.">
  <defs>
    <style>
      .title { font: 700 24px system-ui, -apple-system, Segoe UI, Roboto, Helvetica, Arial, sans-serif; fill: #111827; }
      .subtitle { font: 500 18px system-ui, -apple-system, Segoe UI, Roboto, Helvetica, Arial, sans-serif; fill: #6b7280; }
      .heading { font: 700 18px system-ui, -apple-system, Segoe UI, Roboto, Helvetica, Arial, sans-serif; fill: #111827; }
      .mono { font: 600 18px ui-monospace, SFMono-Regular, Menlo, Monaco, Consolas, "Liberation Mono", "Courier New", monospace; fill: #111827; }
      .box { stroke-width: 2; }
    </style>
    <marker id="arrow" markerWidth="7" markerHeight="7" refX="6" refY="3.5" orient="auto">
      <path d="M0,0 L7,3.5 L0,7 Z" fill="#6b7280"/>
    </marker>
  </defs>

  <rect x="0" y="0" width="1200" height="600" fill="#ffffff"/>

  <text x="40" y="48" class="title">Portability by contract</text>
  <text x="40" y="76" class="subtitle">One shared behavior spec keeps ports aligned on semantics, config shape, and defaults</text>

  <!-- Center contract -->
  <rect x="470" y="315" width="260" height="90" rx="18" fill="#ede9fe" stroke="#a78bfa" class="box"/>
  <text x="600" y="360" class="heading" text-anchor="middle" dominant-baseline="middle">Behavior contract</text>

  <!-- Language boxes -->
  <rect x="90" y="272" width="160" height="56" rx="14" fill="#f3f4f6" stroke="#d1d5db" class="box"/>
  <text x="170" y="300" class="heading" text-anchor="middle" dominant-baseline="middle">Java</text>

  <rect x="90" y="392" width="160" height="56" rx="14" fill="#f3f4f6" stroke="#d1d5db" class="box"/>
  <text x="170" y="420" class="heading" text-anchor="middle" dominant-baseline="middle">Python</text>

  <rect x="280" y="100" width="190" height="56" rx="14" fill="#f3f4f6" stroke="#d1d5db" class="box"/>
  <text x="375" y="128" class="heading" text-anchor="middle" dominant-baseline="middle">TypeScript</text>

  <rect x="730" y="100" width="190" height="56" rx="14" fill="#f3f4f6" stroke="#d1d5db" class="box"/>
  <text x="825" y="128" class="heading" text-anchor="middle" dominant-baseline="middle">Rust</text>

  <rect x="950" y="272" width="160" height="56" rx="14" fill="#f3f4f6" stroke="#d1d5db" class="box"/>
  <text x="1030" y="300" class="heading" text-anchor="middle" dominant-baseline="middle">Go</text>

  <rect x="950" y="392" width="160" height="56" rx="14" fill="#f3f4f6" stroke="#d1d5db" class="box"/>
  <text x="1030" y="420" class="heading" text-anchor="middle" dominant-baseline="middle">C++</text>

  <rect x="730" y="480" width="190" height="56" rx="14" fill="#f3f4f6" stroke="#d1d5db" class="box"/>
  <text x="825" y="508" class="heading" text-anchor="middle" dominant-baseline="middle">Mojo</text>

  <rect x="280" y="480" width="190" height="56" rx="14" fill="#f3f4f6" stroke="#d1d5db" class="box"/>
  <text x="375" y="508" class="heading" text-anchor="middle" dominant-baseline="middle">C#</text>

  <!-- Arrows to ports -->
  <line x1="470" y1="360" x2="250" y2="300" stroke="#6b7280" stroke-width="2.5" marker-end="url(#arrow)"/>
  <line x1="470" y1="390" x2="250" y2="420" stroke="#6b7280" stroke-width="2.5" marker-end="url(#arrow)"/>
  <line x1="520" y1="315" x2="420" y2="156" stroke="#6b7280" stroke-width="2.5" marker-end="url(#arrow)"/>
  <line x1="680" y1="315" x2="780" y2="156" stroke="#6b7280" stroke-width="2.5" marker-end="url(#arrow)"/>
  <line x1="730" y1="360" x2="950" y2="300" stroke="#6b7280" stroke-width="2.5" marker-end="url(#arrow)"/>
  <line x1="730" y1="390" x2="950" y2="420" stroke="#6b7280" stroke-width="2.5" marker-end="url(#arrow)"/>
  <line x1="650" y1="405" x2="740" y2="480" stroke="#6b7280" stroke-width="2.5" marker-end="url(#arrow)"/>
  <line x1="550" y1="405" x2="460" y2="480" stroke="#6b7280" stroke-width="2.5" marker-end="url(#arrow)"/>
</svg>
