<svg xmlns="http://www.w3.org/2000/svg" width="1200" height="520" viewBox="0 0 1200 520" role="img" aria-label="Prompt-to-code concept: a pipeline can mix local, remote, and prompt actions; code generation compiles prompt actions into generated local actions.">
  <defs>
    <style>
      .title { font: 700 28px system-ui, -apple-system, Segoe UI, Roboto, Helvetica, Arial, sans-serif; fill: #111827; }
      .subtitle { font: 500 18px system-ui, -apple-system, Segoe UI, Roboto, Helvetica, Arial, sans-serif; fill: #6b7280; }
      .heading { font: 700 18px system-ui, -apple-system, Segoe UI, Roboto, Helvetica, Arial, sans-serif; fill: #111827; }
      .text { font: 500 16px system-ui, -apple-system, Segoe UI, Roboto, Helvetica, Arial, sans-serif; fill: #111827; }
      .muted { fill: #6b7280; }
      .chipText { font: 700 14px system-ui, -apple-system, Segoe UI, Roboto, Helvetica, Arial, sans-serif; fill: #111827; }
      .box { stroke-width: 2; }
    </style>

    <marker id="arrowRight" markerWidth="12" markerHeight="12" refX="10" refY="6" orient="auto">
      <path d="M0,0 L12,6 L0,12 Z" fill="#6b7280"/>
    </marker>
    <marker id="arrowDown" markerWidth="10" markerHeight="10" refX="8" refY="5" orient="auto">
      <path d="M0,0 L10,5 L0,10 Z" fill="#6b7280"/>
    </marker>
  </defs>

  <rect x="0" y="0" width="1200" height="520" fill="#ffffff"/>

  <text x="40" y="56" class="title">Prompt-to-code: mix actions, keep prompts small</text>
  <text x="40" y="90" class="subtitle">A pipeline can include many local/remote actions and a few prompt actions; generation converts prompts into language-native code</text>

  <!-- Legend -->
  <rect x="40" y="108" width="24" height="14" rx="7" fill="#dbeafe" stroke="#60a5fa" class="box"/>
  <text x="74" y="121" class="chipText">Local</text>
  <rect x="150" y="108" width="24" height="14" rx="7" fill="#dcfce7" stroke="#34d399" class="box"/>
  <text x="184" y="121" class="chipText">Remote</text>
  <rect x="288" y="108" width="24" height="14" rx="7" fill="#e9d5ff" stroke="#a78bfa" class="box"/>
  <text x="322" y="121" class="chipText">Prompt</text>
  <rect x="436" y="108" width="24" height="14" rx="7" fill="#eef2ff" stroke="#6366f1" class="box"/>
  <text x="470" y="121" class="chipText">Generated local</text>

  <!-- Left: source pipeline -->
  <rect x="40" y="140" width="520" height="340" rx="18" fill="#ffffff" stroke="#d1d5db" class="box"/>
  <text x="64" y="176" class="heading">Source pipeline (concept)</text>
  <text x="64" y="202" class="text muted">mix local + remote + prompt actions in a single chain</text>

  <!-- Left action boxes -->
  <rect x="80" y="222" width="440" height="40" rx="14" fill="#dbeafe" stroke="#60a5fa" class="box"/>
  <text x="104" y="248" class="text">Local action: validate + normalize input</text>

  <rect x="80" y="272" width="440" height="40" rx="14" fill="#dcfce7" stroke="#34d399" class="box"/>
  <text x="104" y="298" class="text">Remote action: enrichment / lookup service</text>

  <rect x="80" y="322" width="440" height="40" rx="14" fill="#e9d5ff" stroke="#a78bfa" class="box"/>
  <text x="104" y="348" class="text">Prompt action: classify / extract structure</text>

  <rect x="80" y="372" width="440" height="40" rx="14" fill="#dbeafe" stroke="#60a5fa" class="box"/>
  <text x="104" y="398" class="text">Local action: apply policy + business rules</text>

  <rect x="80" y="422" width="440" height="40" rx="14" fill="#e9d5ff" stroke="#a78bfa" class="box"/>
  <text x="104" y="448" class="text">Prompt action: rewrite / summarize / generate</text>

  <!-- Left flow arrows -->
  <line x1="300" y1="262" x2="300" y2="272" stroke="#6b7280" stroke-width="2.4" marker-end="url(#arrowDown)"/>
  <line x1="300" y1="312" x2="300" y2="322" stroke="#6b7280" stroke-width="2.4" marker-end="url(#arrowDown)"/>
  <line x1="300" y1="362" x2="300" y2="372" stroke="#6b7280" stroke-width="2.4" marker-end="url(#arrowDown)"/>
  <line x1="300" y1="412" x2="300" y2="422" stroke="#6b7280" stroke-width="2.4" marker-end="url(#arrowDown)"/>

  <!-- Generation arrow -->
  <text x="600" y="300" class="heading" text-anchor="middle">code generation</text>
  <text x="600" y="328" class="text muted" text-anchor="middle">prompt actions → generated code</text>
  <line x1="570" y1="352" x2="630" y2="352" stroke="#6b7280" stroke-width="3.2" marker-end="url(#arrowRight)"/>

  <!-- Right: compiled pipeline -->
  <rect x="640" y="140" width="520" height="340" rx="18" fill="#ffffff" stroke="#d1d5db" class="box"/>
  <text x="664" y="176" class="heading">Compiled pipeline (per language)</text>
  <text x="664" y="202" class="text muted">prompt actions become generated local actions you can review + test</text>

  <!-- Right action boxes -->
  <rect x="680" y="222" width="440" height="40" rx="14" fill="#dbeafe" stroke="#60a5fa" class="box"/>
  <text x="704" y="248" class="text">Local action: validate + normalize input</text>

  <rect x="680" y="272" width="440" height="40" rx="14" fill="#dcfce7" stroke="#34d399" class="box"/>
  <text x="704" y="298" class="text">Remote action: enrichment / lookup service</text>

  <rect x="680" y="322" width="440" height="40" rx="14" fill="#eef2ff" stroke="#6366f1" class="box"/>
  <text x="704" y="348" class="text">Generated local action: classify / extract structure</text>

  <rect x="680" y="372" width="440" height="40" rx="14" fill="#dbeafe" stroke="#60a5fa" class="box"/>
  <text x="704" y="398" class="text">Local action: apply policy + business rules</text>

  <rect x="680" y="422" width="440" height="40" rx="14" fill="#eef2ff" stroke="#6366f1" class="box"/>
  <text x="704" y="448" class="text">Generated local action: rewrite / summarize / generate</text>

  <!-- Right flow arrows -->
  <line x1="900" y1="262" x2="900" y2="272" stroke="#6b7280" stroke-width="2.4" marker-end="url(#arrowDown)"/>
  <line x1="900" y1="312" x2="900" y2="322" stroke="#6b7280" stroke-width="2.4" marker-end="url(#arrowDown)"/>
  <line x1="900" y1="362" x2="900" y2="372" stroke="#6b7280" stroke-width="2.4" marker-end="url(#arrowDown)"/>
  <line x1="900" y1="412" x2="900" y2="422" stroke="#6b7280" stroke-width="2.4" marker-end="url(#arrowDown)"/>

  <!-- Footnote -->
  <text x="40" y="510" class="text muted">Conceptual view: prompts remain in source pipelines; compiled pipelines reference generated actions per target language.</text>
</svg>
